<?xml version="1.0" encoding="UTF-8"?>
<svg width="24" height="24" viewBox="0 0 24 24" fill="none" xmlns="http://www.w3.org/2000/svg">
    <path d="M12.0001 0C5.37258 0 0 5.37258 0 12.0001C0 18.6275 5.37258 24 12.0001 24C18.6275 24 24 18.6275 24 12.0001C24 5.37258 18.6275 0 12.0001 0Z" fill="#FF5A5F"/>
    <path d="M18.5211 15.4701C18.4411 15.6901 18.3511 15.9101 18.2511 16.1201C18.0611 16.5501 17.8511 16.9801 17.6511 17.3801L17.6111 17.4601C16.5411 19.4601 15.3811 20.5001 14.0911 20.5001C13.4111 20.5001 12.8011 20.2501 12.2811 19.7601C11.7611 19.2701 11.0811 19.0201 10.2411 19.0201C9.40109 19.0201 8.72109 19.2701 8.20109 19.7601C7.68109 20.2501 7.07109 20.5001 6.39109 20.5001C5.02109 20.5001 3.82109 19.3901 2.79109 17.1701C2.59109 16.7701 2.38109 16.3401 2.19109 15.9101C1.54109 14.3701 1.20109 12.8801 1.20109 11.4501C1.20109 10.2101 1.46109 9.11011 1.98109 8.17011C2.34109 7.51011 2.83109 6.96011 3.44109 6.52011C4.05109 6.08011 4.72109 5.86011 5.45109 5.86011C5.89109 5.86011 6.33109 5.96011 6.77109 6.16011C7.07109 6.30011 7.43109 6.50011 7.85109 6.76011C8.19109 6.97011 8.45109 7.12011 8.63109 7.22011C8.87109 7.36011 9.08109 7.43011 9.26109 7.43011C9.47109 7.43011 9.71109 7.35011 9.98109 7.19011C10.1611 7.09011 10.4211 6.94011 10.7611 6.73011C11.1811 6.47011 11.5311 6.27011 11.8111 6.14011C12.2511 5.95011 12.6911 5.85011 13.1311 5.85011C13.8611 5.85011 14.5311 6.05011 15.1411 6.45011C15.7511 6.85011 16.2411 7.37011 16.6111 8.01011C15.7211 8.62011 15.0511 9.35011 14.6111 10.2001C14.1711 11.0501 13.9511 11.9601 13.9511 12.9201C13.9511 13.9601 14.2011 14.9001 14.7011 15.7301C15.2011 16.5601 15.8411 17.1701 16.6111 17.5501C16.2411 18.1901 15.8411 18.7101 15.4111 19.1101C14.9811 19.5101 14.5411 19.7101 14.0911 19.7101C13.6311 19.7101 13.2111 19.5501 12.8311 19.2301C12.4511 18.9101 12.0211 18.7501 11.5411 18.7501C11.0611 18.7501 10.6311 18.9101 10.2511 19.2301C9.87109 19.5501 9.45109 19.7101 8.99109 19.7101C8.54109 19.7101 8.10109 19.5101 7.67109 19.1101C7.24109 18.7101 6.84109 18.1901 6.47109 17.5501C7.24109 17.1701 7.88109 16.5601 8.38109 15.7301C8.88109 14.9001 9.13109 13.9601 9.13109 12.9201C9.13109 11.9601 8.91109 11.0501 8.47109 10.2001C8.03109 9.35011 7.36109 8.62011 6.47109 8.01011C6.84109 7.37011 7.33109 6.85011 7.94109 6.45011C8.55109 6.05011 9.22109 5.85011 9.95109 5.85011C10.3911 5.85011 10.8311 5.95011 11.2711 6.14011C11.5511 6.27011 11.9011 6.47011 12.3211 6.73011C12.6611 6.94011 12.9211 7.09011 13.1011 7.19011C13.3711 7.35011 13.6111 7.43011 13.8211 7.43011C14.0011 7.43011 14.2111 7.36011 14.4511 7.22011C14.6311 7.12011 14.8911 6.97011 15.2311 6.76011C15.6511 6.50011 16.0111 6.30011 16.3111 6.16011C16.7511 5.96011 17.1911 5.86011 17.6311 5.86011C18.3611 5.86011 19.0311 6.08011 19.6411 6.52011C20.2511 6.96011 20.7411 7.51011 21.1011 8.17011C21.6211 9.11011 21.8811 10.2101 21.8811 11.4501C21.8811 12.8801 21.5411 14.3701 20.8911 15.9101C20.7011 16.3401 20.4911 16.7701 20.2911 17.1701C19.2611 19.3901 18.0611 20.5001 16.6911 20.5001C16.0111 20.5001 15.4011 20.2501 14.8811 19.7601C14.3611 19.2701 13.6811 19.0201 12.8411 19.0201C12.0011 19.0201 11.3211 19.2701 10.8011 19.7601C10.2811 20.2501 9.67109 20.5001 8.99109 20.5001C7.62109 20.5001 6.42109 19.3901 5.39109 17.1701L5.35109 17.0901C5.15109 16.6901 4.94109 16.2601 4.75109 15.8301C4.65109 15.6201 4.56109 15.4001 4.48109 15.1801" fill="white"/>
</svg>
