<?xml version="1.0" encoding="UTF-8"?>
<svg width="24" height="24" viewBox="0 0 24 24" fill="none" xmlns="http://www.w3.org/2000/svg">
    <path d="M19.0335 15.9954C18.8724 15.7742 18.6436 15.7144 18.4148 15.8341C17.0789 16.5511 15.6242 17.0878 14.1118 17.3688C12.5418 17.6498 10.9718 17.6498 9.40177 17.4104C7.83177 17.171 6.32083 16.6927 4.86849 15.9757C4.69927 15.8957 4.47052 15.9157 4.30927 16.0752C4.14802 16.2347 4.10661 16.4559 4.20739 16.6371C4.30817 16.8183 5.0997 17.8118 6.69864 18.6883C8.29757 19.5649 10.4236 20.0432 12.7248 20.0432C15.026 20.0432 17.1934 19.5649 18.7923 18.6883C20.3913 17.8118 21.1414 16.8183 21.2422 16.6371C21.3844 16.4559 21.343 16.2347 21.1818 16.0752C20.9105 15.8341 19.1946 15.9954 19.0335 15.9954Z" fill="#FF9900"/>
    <path d="M21.9923 14.6019C21.5368 13.8449 19.5306 13.6637 17.2294 14.0644C16.8325 14.1444 16.7317 14.4254 16.8325 14.6466C16.9333 14.8678 17.2708 14.9478 17.6677 14.8678C19.4894 14.5468 21.0883 14.6668 21.3171 15.1051C21.5459 15.5434 20.9096 17.0513 19.3106 18.4793C19.0233 18.7203 19.0647 18.9815 19.3521 19.1227C19.6394 19.2639 19.9682 19.2239 20.2555 18.9827C22.4644 17.0913 22.4478 15.3589 21.9923 14.6019Z" fill="#FF9900"/>
</svg>
