<?xml version="1.0" encoding="UTF-8"?>
<svg width="24" height="24" viewBox="0 0 24 24" fill="none" xmlns="http://www.w3.org/2000/svg">
    <path d="M18.4065 12.7985C18.3799 9.76846 20.9257 8.36538 21.0321 8.30769C19.6024 6.19077 17.3096 5.90538 16.5272 5.87692C14.5912 5.67692 12.7352 6.99231 11.7456 6.99231C10.7296 6.99231 9.24 5.89615 7.6032 5.92462C5.4768 5.95308 3.5144 7.08 2.424 8.85231C0.1576 12.4846 1.8456 17.8615 4.0248 20.8338C5.1096 22.2938 6.3816 23.9215 8.0432 23.8638C9.6784 23.8062 10.2864 22.8231 12.24 22.8231C14.1672 22.8231 14.7488 23.8638 16.4632 23.8354C18.2304 23.8062 19.3416 22.3462 20.3832 20.8754C21.6288 19.1877 22.1304 17.5315 22.1568 17.4454C22.1304 17.4169 18.4328 16.0138 18.4065 12.7985Z" fill="black"/>
    <path d="M15.4248 3.85154C16.3088 2.76308 16.9168 1.27385 16.7576 -0.200012C15.4512 -0.141242 13.8424 0.664912 12.932 1.72414C12.1232 2.66954 11.3936 4.20108 11.58 5.64646C13.0368 5.76031 14.5144 4.93969 15.4248 3.85154Z" fill="black"/>
</svg>
