<?xml version="1.0" encoding="UTF-8"?>
<svg width="24" height="24" viewBox="0 0 24 24" fill="none" xmlns="http://www.w3.org/2000/svg">
    <path fill-rule="evenodd" clip-rule="evenodd" d="M12 0C5.37527 0 0 5.37527 0 12C0 18.6247 5.37527 24 12 24C18.6117 24 24 18.6247 24 12C24 5.37527 18.6117 0 12 0ZM19.9262 5.53024C21.3461 7.27812 22.1713 9.44691 22.2063 11.7897C21.8961 11.7197 18.4657 11.0595 15.0118 11.4632C14.9418 11.3115 14.8847 11.1468 14.8147 10.982C14.6161 10.5054 14.3916 10.0159 14.1671 9.54致C17.9825 8.00921 19.6734 5.82379 19.9262 5.53024ZM12 1.80703C14.5305 1.80703 16.8733 2.71843 18.7057 4.23159C18.4927 4.49902 16.9796 6.54184 13.2827 7.91843C11.6153 4.87764 9.77605 2.37843 9.47578 1.98797C10.2895 1.86797 11.1374 1.80703 12 1.80703ZM7.55859 2.65078C7.84551 3.02789 9.65859 5.53024 11.3375 8.51871C6.57305 9.75871 2.34961 9.73633 1.90371 9.73633C2.54976 6.60278 4.69317 4.02789 7.55859 2.65078ZM1.78371 12.0117V11.7337C2.21625 11.7477 7.15478 11.8037 12.2805 10.3375C12.5727 10.8914 12.8414 11.4585 13.0961 12.0257C12.9305 12.0773 12.7648 12.129 12.5992 12.1806C7.31719 13.8141 4.53075 18.4541 4.27997 18.8883C2.71137 17.0699 1.78371 14.6523 1.78371 12.0117ZM12 22.2164C9.67266 22.2164 7.51723 21.4289 5.77266 20.1023C5.96793 19.682 7.99395 15.7242 13.7516 13.7883C13.7797 13.7742 13.7937 13.7742 13.8219 13.7602C15.2742 17.5875 15.8633 20.8055 16.0336 21.7312C14.7867 22.0515 13.4227 22.2164 12 22.2164ZM17.7891 20.7867C17.6742 20.1445 17.1281 17.0699 15.7711 13.3008C18.9961 12.8254 21.8336 13.6406 22.1578 13.7461C21.6961 16.7156 20.0473 19.2445 17.7891 20.7867Z" fill="#EA4C89"/>
</svg>
