<?xml version="1.0" encoding="UTF-8"?>
<svg width="24" height="24" viewBox="0 0 24 24" fill="none" xmlns="http://www.w3.org/2000/svg">
    <path d="M23.7662 12.2765C23.7662 11.4608 23.7001 10.6406 23.5679 9.83813H12.2441V14.4591H18.7275C18.4532 15.9494 17.5888 17.2678 16.3233 18.1056V21.1039H20.1903C22.4611 19.0139 23.7662 15.9274 23.7662 12.2765Z" fill="#4285F4"/>
    <path d="M12.2441 24.0008C15.4635 24.0008 18.2077 22.9382 20.1903 21.1039L16.3233 18.1056C15.2457 18.8368 13.8595 19.252 12.2441 19.252C9.11388 19.252 6.45946 17.1399 5.50661 14.3003H1.5166V17.3912C3.55371 21.4434 7.7029 24.0008 12.2441 24.0008Z" fill="#34A853"/>
    <path d="M5.50661 14.3003C5.00883 12.8099 5.00883 11.1961 5.50661 9.70575V6.61487H1.5166C-0.18556 10.0047 -0.18556 14.0013 1.5166 17.3912L5.50661 14.3003Z" fill="#FBBC04"/>
    <path d="M12.2441 4.74966C13.9912 4.7232 15.6799 5.36697 16.9729 6.54867L20.4041 3.12533C18.2534 1.0853 15.3075 -0.034466 12.2441 0.000808666C7.7029 0.000808666 3.55371 2.55822 1.5166 6.61487L5.50661 9.70575C6.45946 6.86612 9.11388 4.74966 12.2441 4.74966Z" fill="#EA4335"/>
</svg>
