<?xml version="1.0" encoding="UTF-8"?>
<svg width="24" height="24" viewBox="0 0 24 24" fill="none" xmlns="http://www.w3.org/2000/svg">
    <path d="M23.6435 4.93708C22.8085 5.30708 21.9115 5.55708 20.9685 5.67008C21.9415 5.08787 22.6694 4.17106 23.0165 3.09208C22.1023 3.63507 21.1018 4.01727 20.0585 4.22208C19.3569 3.47294 18.4276 2.9764 17.4148 2.80955C16.4021 2.6427 15.3626 2.81487 14.4577 3.29933C13.5529 3.78379 12.8333 4.55344 12.4112 5.48878C11.989 6.42412 11.8927 7.47283 12.1335 8.47208C10.1147 8.37907 8.14751 7.89763 6.34019 7.05898C4.53287 6.22034 2.92444 5.04324 1.5975 3.60408C1.2075 4.29408 0.9765 5.09408 0.9765 5.94608C0.975873 6.71307 1.16856 7.46832 1.53803 8.14481C1.9075 8.82131 2.44347 9.39812 3.0945 9.82408C2.35786 9.80054 1.63783 9.60066 0.9885 9.24108V9.30108C0.988731 10.3768 1.35535 11.4195 2.03506 12.2521C2.71477 13.0847 3.66985 13.6559 4.7235 13.8691C4.03864 14.0548 3.3204 14.0821 2.6235 13.9491C2.93099 14.8747 3.51425 15.6841 4.29159 16.264C5.06893 16.8439 6.00685 17.1653 6.9765 17.1831C5.29786 18.4785 3.26077 19.1812 1.1655 19.1781C0.7765 19.1781 0.3885 19.1561 0 19.1131C2.13155 20.4823 4.61722 21.2089 7.1565 21.2061C15.7375 21.2061 20.4295 14.1081 20.4295 7.95208C20.4295 7.75208 20.4245 7.55008 20.4155 7.35008C21.3266 6.69105 22.1166 5.87648 22.7465 4.94308L23.6435 4.93708Z" fill="#1DA1F2"/>
</svg>
